<?xml version="1.0" standalone="no"?><!DOCTYPE svg PUBLIC "-//W3C//DTD SVG 1.1//EN" "http://www.w3.org/Graphics/SVG/1.1/DTD/svg11.dtd"><svg t="1596523039997" class="icon" viewBox="0 0 1024 1024" version="1.1" xmlns="http://www.w3.org/2000/svg" p-id="22085" xmlns:xlink="http://www.w3.org/1999/xlink" width="200" height="200"><defs><style type="text/css"></style></defs><path d="M932.018922 960.01925h-840.009844a28.000328 28.000328 0 0 1 0-56.000656H153.161795a82.79697 82.79697 0 0 1-5.152061-28.000328v-728.008532a84.000984 84.000984 0 0 1 84.000985-84.000984h560.006562a84.000984 84.000984 0 0 1 84.000985 84.000984v728.008532a82.79697 82.79697 0 0 1-5.152061 28.000328h61.152717a28.000328 28.000328 0 0 1 0 56.000656z m-280.003281-56.000656v-112.001313a28.000328 28.000328 0 0 0-28.000328-28.000328h-224.002625a28.000328 28.000328 0 0 0-28.000328 28.000328v112.001313h280.003281z m168.001969-756.00886a28.000328 28.000328 0 0 0-28.000329-28.000328h-560.006562a28.000328 28.000328 0 0 0-28.000328 28.000328v756.00886h117.153373a82.79697 82.79697 0 0 1-5.152061-28.000328v-84.000985a84.000984 84.000984 0 0 1 84.000985-84.000984h224.002625a84.000984 84.000984 0 0 1 84.000984 84.000984v84.000985a82.79697 82.79697 0 0 1-5.15206 28.000328h117.153373v-756.00886z" fill="#232B4A" p-id="22086"></path><path d="M568.014656 624.015313a32.032375 32.032375 0 0 1-27.776325-35.00041v-70.000821a28.588335 28.588335 0 1 1 55.552651 0v70.000821a32.032375 32.032375 0 0 1-27.776326 35.00041z m0-223.722622a32.032375 32.032375 0 0 1-27.776325-35.00041v-70.000821a28.532334 28.532334 0 1 1 55.552651 0v70.000821a32.032375 32.032375 0 0 1-27.776326 35.00041z m-112.001312 223.722622a32.032375 32.032375 0 0 1-27.776326-35.00041v-70.000821a28.588335 28.588335 0 1 1 55.552651 0v70.000821a32.032375 32.032375 0 0 1-27.776325 35.00041z m0-223.722622a32.032375 32.032375 0 0 1-27.776326-35.00041v-70.000821a28.532334 28.532334 0 1 1 55.552651 0v70.000821a32.032375 32.032375 0 0 1-27.776325 35.00041z" fill="#2468F2" p-id="22087"></path></svg>