<?xml version="1.0" standalone="no"?><!DOCTYPE svg PUBLIC "-//W3C//DTD SVG 1.1//EN" "http://www.w3.org/Graphics/SVG/1.1/DTD/svg11.dtd"><svg t="1596522704557" class="icon" viewBox="0 0 1024 1024" version="1.1" xmlns="http://www.w3.org/2000/svg" p-id="8348" xmlns:xlink="http://www.w3.org/1999/xlink" width="200" height="200"><defs><style type="text/css"></style></defs><path d="M512.512 0a512 512 0 0 1 0 1024 36.571429 36.571429 0 0 1 0-73.216 438.784 438.784 0 1 0-303.542857-121.929143 36.571429 36.571429 0 0 1-50.614857 52.882286A512 512 0 0 1 512.512 0z" fill="#2F2F33" p-id="8349"></path><path d="M603.428571 305.152l2.56 0.877714a36.790857 36.790857 0 0 1 15.798858 10.752l0.146285 0.219429 0.512 0.585143a37.156571 37.156571 0 0 1 2.998857 4.388571l0.219429 0.512 48.786286 85.723429a36.571429 36.571429 0 0 1-59.830857 41.545143l-3.803429-5.412572-8.630857-15.213714-105.910857 309.394286a36.571429 36.571429 0 0 1-53.028572 19.748571l-5.12-3.584-140.580571-118.198857-80.896 231.350857a36.571429 36.571429 0 0 1-40.155429 24.137143l-6.436571-1.682286a36.571429 36.571429 0 0 1-24.064-40.228571l1.609143-6.363429 98.450285-281.453714a36.571429 36.571429 0 0 1 52.955429-19.529143l5.12 3.657143 140.214857 117.979428 84.114286-245.467428-3.364572 1.974857a36.571429 36.571429 0 0 1-46.08-8.704l-3.657142-5.412571a36.571429 36.571429 0 0 1 8.630857-46.08l5.412571-3.657143 86.674286-48.420572a35.766857 35.766857 0 0 1 27.355428-3.437714z" fill="#324DFF" p-id="8350"></path></svg>