<?xml version="1.0" standalone="no"?><!DOCTYPE svg PUBLIC "-//W3C//DTD SVG 1.1//EN" "http://www.w3.org/Graphics/SVG/1.1/DTD/svg11.dtd"><svg t="1596522897311" class="icon" viewBox="0 0 1024 1024" version="1.1" xmlns="http://www.w3.org/2000/svg" p-id="10720" xmlns:xlink="http://www.w3.org/1999/xlink" width="200" height="200"><defs><style type="text/css"></style></defs><path d="M912.318873 0a63.99992 63.99992 0 0 1 62.719922 51.199936l0.639999 3.754662 37.439953 262.037006L1013.33208 319.9996c0 45.589276-16.831979 87.253224-44.607944 119.125184a20.821307 20.821307 0 0 1 1.791998 6.399992L970.665467 447.99944v106.666533a21.333307 21.333307 0 0 1-42.517281 2.495997L927.998853 554.665973v-80.810565a180.479774 180.479774 0 0 1-95.99988 27.477299 181.205107 181.205107 0 0 1-156.757137-90.239888L671.999173 405.375493l-3.093329 5.54666a181.311773 181.311773 0 0 1-145.045152 90.047887l-6.442659 0.298667-5.439993 0.085333a181.205107 181.205107 0 0 1-156.757137-90.239887L351.999573 405.375493l-3.093329 5.54666a181.311773 181.311773 0 0 1-145.045152 90.047887l-6.442659 0.298667-5.439993 0.085333a180.586441 180.586441 0 0 1-74.666573-16.06398V938.665493a21.333307 21.333307 0 0 0 18.837309 21.183974L138.666507 959.9988h490.666053a21.333307 21.333307 0 0 1 2.495997 42.51728L629.33256 1002.665413H138.666507a63.99992 63.99992 0 0 1-63.893254-60.245258L74.666587 938.665493V458.218094a181.269107 181.269107 0 0 1-63.573254-126.079843l-0.341333-6.613325L10.666667 320.340933l0.213333-3.349329L48.319953 54.954598A63.99992 63.99992 0 0 1 107.882545 0.128L111.679874 0h800.638999zM266.666347 639.9992a21.333307 21.333307 0 0 1 21.183973 18.83731L287.999653 661.332507v106.666533a21.333307 21.333307 0 0 1-42.51728 2.495997L245.33304 767.99904v-106.666533a21.333307 21.333307 0 0 1 21.333307-21.333307zM912.318873 42.666613H111.679874a21.333307 21.333307 0 0 0-20.650641 15.93598l-0.469333 2.389331L53.33328 321.279598l0.064 3.199996a138.666493 138.666493 0 0 0 128.703839 133.823833l4.906661 0.256 4.991993 0.085333A138.666493 138.666493 0 0 0 330.666267 319.9996c0-27.242633 39.359951-28.501298 42.45328-3.157329l0.213333 2.815996 0.064 4.842661a138.666493 138.666493 0 0 0 128.703839 133.823832l4.906661 0.256 4.991993 0.085333A138.666493 138.666493 0 0 0 650.665867 319.9996c0-27.242633 39.359951-28.501298 42.45328-3.157329l0.213333 2.815996 0.064 4.842661a138.666493 138.666493 0 0 0 128.703839 133.823832l4.906661 0.256 4.991993 0.085333a138.666493 138.666493 0 0 0 138.58116-133.695833l0.042667-3.690662-37.183953-260.287674a21.333307 21.333307 0 0 0-16.341313-17.791978l-2.346664-0.405333L912.318873 42.666613z" fill="#000000" p-id="10721"></path><path d="M970.665467 618.665893h-170.666454a21.333307 21.333307 0 0 0-21.333306 21.333307v362.666213l0.128 2.346664a21.333307 21.333307 0 0 0 34.00529 14.719982l72.533243-54.399932 72.533243 54.399932A21.333307 21.333307 0 0 0 991.998773 1002.665413V639.9992a21.333307 21.333307 0 0 0-21.333306-21.333307z m-21.333307 42.666614v298.666293l-51.199936-38.399952-2.346664-1.535998a21.333307 21.333307 0 0 0-23.253304 1.535998L821.33232 959.9988V661.332507h127.99984z" fill="#0E56EC" p-id="10722"></path></svg>