<?xml version="1.0" standalone="no"?><!DOCTYPE svg PUBLIC "-//W3C//DTD SVG 1.1//EN" "http://www.w3.org/Graphics/SVG/1.1/DTD/svg11.dtd"><svg t="1596522580889" class="icon" viewBox="0 0 1024 1024" version="1.1" xmlns="http://www.w3.org/2000/svg" p-id="3789" xmlns:xlink="http://www.w3.org/1999/xlink" width="200" height="200"><defs><style type="text/css"></style></defs><path d="M512.3 510.6m-488.4 0a488.4 488.4 0 1 0 976.8 0 488.4 488.4 0 1 0-976.8 0Z" fill="#0094FF" p-id="3790"></path><path d="M327.9 858.4l-9.6 6c-5.2 3.3-12-0.5-12-6.6l0.3-156.8c0-10.8 8.8-19.7 19.7-19.7h199.1c9.4 0 17.4 6.7 19.2 15.6 0.5 2.3-0.5 4.7-2.4 6.1l-214 155.2c-0.1 0-0.2 0.1-0.3 0.2z" fill="#A8D2FC" p-id="3791"></path><path d="M762.1 712.1H262.5c-37.5 0-68.1-30.7-68.1-68.1V277.8c0-37.5 30.7-68.1 68.1-68.1h499.6c37.5 0 68.1 30.7 68.1 68.1V644c0 37.4-30.7 68.1-68.1 68.1z" fill="#FEFEFE" p-id="3792"></path><path d="M654.3 428.2H417.5c-10.1 0-18.5-8.3-18.5-18.5 0-10.1 8.3-18.5 18.5-18.5h236.8c10.1 0 18.5 8.3 18.5 18.5-0.1 10.2-8.4 18.5-18.5 18.5zM611.8 528.5H370.2c-10.1 0-18.5-8.3-18.5-18.5 0-10.1 8.3-18.5 18.5-18.5h241.5c10.1 0 18.5 8.3 18.5 18.5s-8.3 18.5-18.4 18.5z" fill="#0094FF" p-id="3793"></path><path d="M515.3 359.3L435.1 582c-3.4 9.5-14.1 14.6-23.6 11.1-9.5-3.4-14.6-14.1-11.1-23.6l80.2-222.8c3.4-9.5 14.1-14.6 23.6-11.1 9.5 3.5 14.5 14.1 11.1 23.7zM624.6 359.3L544.4 582c-3.4 9.5-14.1 14.6-23.6 11.1-9.5-3.4-14.6-14.1-11.1-23.6l80.2-222.8c3.4-9.5 14.1-14.6 23.6-11.1 9.5 3.5 14.5 14.1 11.1 23.7z" fill="#0094FF" p-id="3794"></path></svg>