<?xml version="1.0" standalone="no"?><!DOCTYPE svg PUBLIC "-//W3C//DTD SVG 1.1//EN" "http://www.w3.org/Graphics/SVG/1.1/DTD/svg11.dtd"><svg t="1575893890523" class="icon" viewBox="0 0 3444 1024" version="1.1" xmlns="http://www.w3.org/2000/svg" p-id="9437" xmlns:xlink="http://www.w3.org/1999/xlink" width="672.65625" height="200"><defs><style type="text/css"></style></defs><path d="M3316.829091 1024H127.534545A128.155152 128.155152 0 0 1 0 896V128A128.155152 128.155152 0 0 1 127.534545 0h3189.294546A128.155152 128.155152 0 0 1 3444.363636 128v768a128.155152 128.155152 0 0 1-127.534545 128z" p-id="9438"></path><path d="M601.212121 326.749091a132.189091 132.189091 0 0 0 22.652121-5.12 129.551515 129.551515 0 0 0 86.264243-137.929697 114.967273 114.967273 0 0 0-22.49697 5.12 129.396364 129.396364 0 0 0-86.419394 137.929697z" fill="#FFFFFF" p-id="9439"></path><path d="M779.481212 510.758788A156.70303 156.70303 0 0 1 853.333333 378.259394a156.858182 156.858182 0 0 0-96.504242-49.803636 132.499394 132.499394 0 0 0-74.78303 8.378181 181.21697 181.21697 0 0 1-61.44 18.618182c-24.048485 1.861818-39.718788-12.412121-62.060606-20.014545a161.978182 161.978182 0 0 0-76.024243-6.981818c-160.271515 22.341818-186.181818 237.226667-113.260606 372.363636 44.993939 82.695758 120.087273 121.483636 182.147879 113.260606a160.892121 160.892121 0 0 0 46.545454-19.704242c27.61697-13.032727 54.458182-1.086061 79.127273 12.567272a58.957576 58.957576 0 0 0 23.58303 6.671515 127.689697 127.689697 0 0 0 58.026667-8.22303 218.763636 218.763636 0 0 0 111.864243-104.261818 331.869091 331.869091 0 0 0 18.307878-41.425455 158.254545 158.254545 0 0 1-109.381818-148.945454z" fill="#FFFFFF" p-id="9440"></path><path d="M1431.738182 578.249697h44.06303c1.396364 10.860606 2.637576 21.255758 4.344243 35.529697a94.17697 94.17697 0 0 1 65.62909-40.804849 96.814545 96.814545 0 0 1 107.364849 69.663031 175.786667 175.786667 0 0 1 2.637576 97.28c-19.393939 80.989091-111.553939 110.778182-170.666667 56.32V915.393939h-53.372121z m51.665454 121.018182h2.01697v27.151515a57.716364 57.716364 0 0 0 46.545455 53.682424 55.389091 55.389091 0 0 0 62.060606-32.426666 112.64 112.64 0 0 0 0-98.521213 53.372121 53.372121 0 0 0-55.854546-33.357575A54.458182 54.458182 0 0 0 1489.454545 655.980606a306.579394 306.579394 0 0 0-6.050909 43.287273zM1707.907879 578.249697H1753.212121c1.396364 10.705455 2.637576 20.945455 3.568485 28.392727a275.704242 275.704242 0 0 1 53.061818-31.030303 94.17697 94.17697 0 0 1 118.690909 62.060606 163.529697 163.529697 0 0 1-2.792727 122.88 99.917576 99.917576 0 0 1-112.795151 62.060606 252.276364 252.276364 0 0 1-49.648485-21.100606v113.260606h-54.613334z m175.941818 125.362424a346.763636 346.763636 0 0 0-5.12-36.615757c-8.998788-35.374545-32.271515-53.837576-63.767273-51.044849a62.060606 62.060606 0 0 0-53.216969 62.060606 372.363636 372.363636 0 0 0 0 49.183031 56.630303 56.630303 0 0 0 46.545454 52.130909 54.613333 54.613333 0 0 0 62.060606-31.961213 288.581818 288.581818 0 0 0 13.498182-43.752727zM1103.127273 818.579394c25.910303-80.368485 50.424242-156.858182 74.938182-232.727273 9.464242-29.168485 19.393939-58.026667 27.927272-87.350303A15.515152 15.515152 0 0 1 1225.69697 484.072727c16.911515 1.086061 38.167273-4.964848 49.648485 3.258182s13.187879 29.633939 18.46303 45.614546q42.97697 132.344242 85.643636 264.998787c1.861818 5.895758 3.568485 11.791515 6.206061 20.48h-51.665455c-3.413333 0-7.757576-7.13697-9.309091-11.946666q-12.412121-35.995152-23.272727-72.766061a14.429091 14.429091 0 0 0-16.601212-12.412121h-81.609697a15.515152 15.515152 0 0 0-17.842424 12.877576c-6.671515 24.513939-15.515152 48.717576-21.721212 73.231515-2.327273 8.22303-5.895758 12.567273-15.515152 12.101818-14.118788-1.396364-28.082424-0.930909-44.993939-0.930909z m183.233939-139.636364l-44.06303-143.825454c-14.429091 48.562424-28.082424 95.107879-42.511515 143.825454h86.574545zM2050.482424 763.500606a639.689697 639.689697 0 0 0 84.557576 13.963636c37.236364 1.086061 58.802424-21.255758 57.095758-52.596363a43.597576 43.597576 0 0 0-21.41091-36.615758c-13.498182-8.067879-28.547879-13.653333-42.356363-21.255757a304.872727 304.872727 0 0 1-52.596364-31.030303 83.626667 83.626667 0 0 1 5.895758-134.671516c45.149091-31.030303 94.332121-26.996364 143.36-10.395151a14.584242 14.584242 0 0 1 6.516363 12.412121 302.700606 302.700606 0 0 1-9.774545 31.961212c-21.410909-4.033939-41.115152-8.843636-61.129697-11.170909a79.90303 79.90303 0 0 0-30.099394 3.723637 40.494545 40.494545 0 0 0-31.030303 33.202424 38.167273 38.167273 0 0 0 16.911515 40.029091 446.060606 446.060606 0 0 0 41.580606 22.496969c15.515152 8.067879 31.961212 15.515152 46.545455 24.203637a87.04 87.04 0 0 1 40.649697 90.763636 87.195152 87.195152 0 0 1-59.888485 74.162424 183.233939 183.233939 0 0 1-131.258182-2.172121c-12.877576-4.654545-16.290909-11.791515-11.170909-24.513939a178.113939 178.113939 0 0 0 7.602424-22.49697zM2688.930909 693.682424c0 92.315152-68.421818 147.549091-152.358788 126.293334a101.624242 101.624242 0 0 1-78.506666-82.85091 199.214545 199.214545 0 0 1 0-77.575757c12.25697-58.647273 63.612121-93.090909 126.138181-87.350303a111.243636 111.243636 0 0 1 103.641212 105.50303c0.775758 6.516364 0.930909 12.722424 1.086061 15.980606z m-186.181818 4.03394a331.869091 331.869091 0 0 0 21.721212 59.578181 52.441212 52.441212 0 0 0 90.608485 0.93091 115.277576 115.277576 0 0 0 0-120.863031 52.906667 52.906667 0 0 0-90.763636 0 342.729697 342.729697 0 0 0-20.945455 60.819394zM3100.392727 711.059394h-158.875151a59.888485 59.888485 0 0 0 52.906666 67.646061 623.088485 623.088485 0 0 0 87.350303-2.172122l7.292122 31.961212c-49.803636 16.601212-98.676364 24.669091-145.532122-1.551515a102.4 102.4 0 0 1-42.201212-43.287272 141.032727 141.032727 0 0 1 11.791515-148.169697 106.123636 106.123636 0 0 1 117.76-39.87394 97.28 97.28 0 0 1 68.732122 89.832727c1.861818 14.429091 0.775758 29.168485 0.775757 45.614546z m-51.975757-39.718788c2.01697-35.529697-17.066667-59.733333-47.476364-62.060606s-57.871515 24.979394-59.578182 62.060606zM2277.469091 616.727273v-38.322425l34.753939-2.172121a312.940606 312.940606 0 0 1 0-31.961212c0-4.654545 3.413333-11.636364 6.981818-12.877576 14.118788-5.430303 28.858182-9.153939 45.149091-13.963636v59.42303h58.026667v41.580606h-56.32c0 44.838788-1.706667 87.815758 0 130.482425 1.551515 26.065455 14.118788 31.030303 50.579394 28.858181 0 0 1.861818 1.551515 2.01697 2.637576 5.12 40.184242 2.637576 42.821818-38.012122 42.821818s-64.698182-20.014545-67.335757-60.509091-1.396364-80.368485-1.706667-120.552727v-23.427879zM2779.849697 578.870303c1.086061 12.412121 2.172121 24.513939 3.568485 41.115152 17.997576-33.512727 40.96-51.510303 77.575757-46.545455v48.562424c-1.551515 0.775758-2.482424 1.551515-3.413333 1.551515-47.321212 0-68.111515 20.790303-68.732121 68.421819v125.362424h-54.147879V578.870303z" fill="#FFFFFF" p-id="9441"></path><path d="M1108.402424 370.812121V178.889697h66.094546a157.168485 157.168485 0 0 1 34.133333 2.792727 64.077576 64.077576 0 0 1 28.237576 13.653334 77.575758 77.575758 0 0 1 22.652121 32.892121 126.758788 126.758788 0 0 1 7.602424 45.614545 134.206061 134.206061 0 0 1-5.12 38.787879 93.090909 93.090909 0 0 1-13.187879 27.927273 65.939394 65.939394 0 0 1-17.376969 17.376969 68.732121 68.732121 0 0 1-22.962424 9.619394 131.878788 131.878788 0 0 1-31.030304 3.258182z m25.289697-22.652121h41.115152a101.934545 101.934545 0 0 0 29.789091-3.413333 44.373333 44.373333 0 0 0 17.221818-10.084849 58.33697 58.33697 0 0 0 13.963636-24.203636 117.604848 117.604848 0 0 0 5.430303-37.081212 88.281212 88.281212 0 0 0-9.929697-46.545455 49.338182 49.338182 0 0 0-24.048485-21.721212 98.986667 98.986667 0 0 0-33.202424-3.413333h-40.339394zM1290.24 301.304242a71.369697 71.369697 0 0 1 21.566061-57.250909 64.853333 64.853333 0 0 1 43.752727-15.515151 62.060606 62.060606 0 0 1 46.545454 18.773333 71.68 71.68 0 0 1 18.152728 51.975758A91.229091 91.229091 0 0 1 1411.878788 341.333333a56.940606 56.940606 0 0 1-23.427879 23.893334 69.042424 69.042424 0 0 1-33.512727 8.533333 63.146667 63.146667 0 0 1-47.321212-18.773333 74.938182 74.938182 0 0 1-17.37697-53.682425z m24.203636 0a58.492121 58.492121 0 0 0 11.791516 40.029091 38.787879 38.787879 0 0 0 58.492121 0 60.974545 60.974545 0 0 0 11.636363-40.804848 56.940606 56.940606 0 0 0-11.791515-39.098182 38.477576 38.477576 0 0 0-58.336969 0 58.026667 58.026667 0 0 0-11.791516 39.873939zM1473.939394 370.812121l-42.666667-139.636363h24.358788l22.186667 80.213333 8.22303 29.944242c0-1.551515 2.792727-11.015758 7.292121-28.70303l22.031515-81.454545h24.203637l20.945454 80.678787 6.826667 26.53091 8.067879-26.841213 23.893333-80.368484h22.807273l-43.442424 139.636363h-24.51394l-22.031515-83.161212L1526.690909 263.757576l-28.237576 107.054545zM1641.968485 370.812121v-139.636363h21.255757v19.704242a49.648485 49.648485 0 0 1 44.218182-22.807273 56.940606 56.940606 0 0 1 23.117576 4.499394 35.84 35.84 0 0 1 15.515152 11.791515 45.149091 45.149091 0 0 1 7.447272 17.37697 151.272727 151.272727 0 0 1 1.241212 22.962424v86.109091h-23.58303v-84.557576a67.801212 67.801212 0 0 0-2.637576-21.56606 22.962424 22.962424 0 0 0-9.774545-11.326061 31.030303 31.030303 0 0 0-16.446061-4.344242 38.477576 38.477576 0 0 0-26.065454 9.619394 46.545455 46.545455 0 0 0-10.860606 36.305454v75.869091zM1790.603636 370.812121V178.889697h23.583031V370.812121zM1841.958788 301.304242a71.835152 71.835152 0 0 1 21.410909-57.250909 64.853333 64.853333 0 0 1 43.752727-15.515151 62.060606 62.060606 0 0 1 46.545455 18.773333 71.059394 71.059394 0 0 1 18.307879 51.975758 93.090909 93.090909 0 0 1-7.757576 42.04606 57.871515 57.871515 0 0 1-23.427879 23.893334 69.973333 69.973333 0 0 1-33.667879 8.533333 62.060606 62.060606 0 0 1-46.545454-18.773333 74.162424 74.162424 0 0 1-18.618182-53.682425z m24.203636 0A59.267879 59.267879 0 0 0 1877.333333 341.333333a38.787879 38.787879 0 0 0 58.492122 0 60.974545 60.974545 0 0 0 11.636363-40.804848 57.716364 57.716364 0 0 0-11.636363-39.098182 38.787879 38.787879 0 0 0-58.492122 0 58.802424 58.802424 0 0 0-11.170909 39.873939zM2090.666667 353.745455a89.987879 89.987879 0 0 1-25.289697 15.515151 71.68 71.68 0 0 1-25.910303 4.654546 50.269091 50.269091 0 0 1-35.219394-11.17091 39.253333 39.253333 0 0 1 4.499394-60.974545 55.854545 55.854545 0 0 1 16.911515-7.602424 157.013333 157.013333 0 0 1 20.945454-3.568485 209.144242 209.144242 0 0 0 42.046061-8.22303v-6.05091a25.755152 25.755152 0 0 0-6.671515-20.324848 39.873939 39.873939 0 0 0-26.841212-8.067879 41.270303 41.270303 0 0 0-24.51394 5.895758 34.443636 34.443636 0 0 0-11.791515 20.635151l-23.117576-3.10303a57.561212 57.561212 0 0 1 10.395152-23.893333 46.545455 46.545455 0 0 1 20.790303-14.118788 94.332121 94.332121 0 0 1 31.030303-4.809697 82.850909 82.850909 0 0 1 28.858182 4.189091 37.701818 37.701818 0 0 1 16.44606 10.550303 37.081212 37.081212 0 0 1 7.292122 15.515151 132.344242 132.344242 0 0 1 1.241212 21.721212v31.030303a361.192727 361.192727 0 0 0 1.396363 41.580606 54.923636 54.923636 0 0 0 6.050909 16.601213H2094.545455a46.545455 46.545455 0 0 1-3.878788-15.980606z m-2.01697-52.596364a180.441212 180.441212 0 0 1-38.477576 8.843636 91.849697 91.849697 0 0 0-20.635151 4.654546 20.945455 20.945455 0 0 0-9.309091 7.757575 19.704242 19.704242 0 0 0-3.258182 11.17091 20.48 20.48 0 0 0 7.13697 15.515151 31.030303 31.030303 0 0 0 20.945454 6.361212 48.252121 48.252121 0 0 0 24.203637-6.050909 36.150303 36.150303 0 0 0 15.515151-16.290909 57.871515 57.871515 0 0 0 3.723636-23.58303zM2239.301818 370.812121v-17.532121a43.442424 43.442424 0 0 1-38.94303 20.790303 55.233939 55.233939 0 0 1-31.030303-9.153939 62.060606 62.060606 0 0 1-21.566061-25.6 88.746667 88.746667 0 0 1-7.757576-37.85697 97.745455 97.745455 0 0 1 6.981819-37.701818 54.147879 54.147879 0 0 1 51.820606-35.064243 46.545455 46.545455 0 0 1 22.496969 5.275152 47.631515 47.631515 0 0 1 15.515152 13.808485v-68.887273h23.427879V370.812121z m-74.472727-69.352727a60.198788 60.198788 0 0 0 11.170909 39.873939 34.288485 34.288485 0 0 0 26.530909 13.343031 33.357576 33.357576 0 0 0 26.375758-12.722425 58.33697 58.33697 0 0 0 10.705454-38.477575 64.387879 64.387879 0 0 0-11.015757-41.890909 33.512727 33.512727 0 0 0-26.996364-13.343031 33.047273 33.047273 0 0 0-26.375758 12.877576 63.612121 63.612121 0 0 0-10.395151 40.339394zM2364.043636 301.304242a71.835152 71.835152 0 0 1 21.410909-57.250909 64.853333 64.853333 0 0 1 43.752728-15.515151 62.060606 62.060606 0 0 1 46.545454 18.773333 71.68 71.68 0 0 1 18.152728 51.975758 93.090909 93.090909 0 0 1-7.912728 42.201212 57.406061 57.406061 0 0 1-23.58303 23.893333 69.042424 69.042424 0 0 1-33.512727 8.533334 62.060606 62.060606 0 0 1-46.545455-18.773334 74.162424 74.162424 0 0 1-18.307879-53.837576z m24.203637 0a59.267879 59.267879 0 0 0 11.636363 40.029091 38.787879 38.787879 0 0 0 58.492122 0 60.974545 60.974545 0 0 0 11.636363-40.804848 57.716364 57.716364 0 0 0-11.636363-39.098182 38.787879 38.787879 0 0 0-58.492122 0 58.802424 58.802424 0 0 0-11.636363 39.873939zM2521.832727 370.812121v-139.636363h21.255758v19.704242a50.113939 50.113939 0 0 1 44.373333-22.807273 56.940606 56.940606 0 0 1 23.117576 4.499394 35.84 35.84 0 0 1 15.515151 11.791515 45.149091 45.149091 0 0 1 7.447273 17.37697 151.272727 151.272727 0 0 1 1.241212 22.962424v86.109091h-23.58303v-84.557576a62.836364 62.836364 0 0 0-2.792727-21.56606 22.962424 22.962424 0 0 0-9.774546-11.326061 31.030303 31.030303 0 0 0-16.44606-4.344242 38.322424 38.322424 0 0 0-25.910303 9.619394 46.545455 46.545455 0 0 0-11.015758 36.305454v75.869091zM2797.071515 349.866667l3.413333 20.790303a87.195152 87.195152 0 0 1-17.842424 2.016969 39.098182 39.098182 0 0 1-19.859394-4.033939 21.410909 21.410909 0 0 1-9.929697-10.705455 80.678788 80.678788 0 0 1-2.947878-27.772121v-80.058182h-17.221819v-18.307878h17.221819v-34.443637l23.427878-14.118788v48.562425h23.738182v18.307878h-23.738182v81.299394a42.666667 42.666667 0 0 0 1.241212 13.032728 10.24 10.24 0 0 0 4.03394 4.499394 15.515152 15.515152 0 0 0 8.067879 1.706666c2.637576 0 6.050909-0.310303 10.395151-0.775757zM2820.189091 370.812121V178.889697h23.58303V248.242424a52.441212 52.441212 0 0 1 42.046061-19.549091 56.630303 56.630303 0 0 1 26.841212 6.050909 35.529697 35.529697 0 0 1 16.290909 16.756364 78.661818 78.661818 0 0 1 4.964849 31.030303v88.281212h-23.583031v-88.12606a36.460606 36.460606 0 0 0-7.757576-25.755152 28.547879 28.547879 0 0 0-21.56606-7.912727 37.081212 37.081212 0 0 0-19.704243 5.430303 31.030303 31.030303 0 0 0-13.187878 15.515151 67.180606 67.180606 0 0 0-3.878788 25.6v76.024243zM3064.552727 325.818182l24.358788 2.947879a59.888485 59.888485 0 0 1-21.410909 33.202424 64.54303 64.54303 0 0 1-39.718788 11.791515A63.612121 63.612121 0 0 1 2978.909091 355.29697a73.386667 73.386667 0 0 1-17.997576-52.751515A76.489697 76.489697 0 0 1 2978.909091 248.242424a60.819394 60.819394 0 0 1 46.545454-19.393939 59.267879 59.267879 0 0 1 46.545455 19.393939 75.558788 75.558788 0 0 1 17.687273 53.527273v6.206061h-103.796364a53.837576 53.837576 0 0 0 13.032727 35.064242 38.322424 38.322424 0 0 0 29.013334 12.25697 36.305455 36.305455 0 0 0 22.186666-6.826667 45.459394 45.459394 0 0 0 14.429091-22.652121z m-77.575757-38.167273h77.575757a46.545455 46.545455 0 0 0-8.843636-26.375757 36.150303 36.150303 0 0 0-29.168485-13.498182 37.081212 37.081212 0 0 0-27.306667 10.860606 42.356364 42.356364 0 0 0-12.101818 29.323636z" fill="#FFFFFF" p-id="9442"></path></svg>