<?xml version="1.0" standalone="no"?><!DOCTYPE svg PUBLIC "-//W3C//DTD SVG 1.1//EN" "http://www.w3.org/Graphics/SVG/1.1/DTD/svg11.dtd"><svg t="1575894170536" class="icon" viewBox="0 0 3444 1024" version="1.1" xmlns="http://www.w3.org/2000/svg" p-id="17021" xmlns:xlink="http://www.w3.org/1999/xlink" width="672.65625" height="200"><defs><style type="text/css"></style></defs><path d="M3306.589091 1020.416H127.185455c-69.771636 0-127.115636-58.228364-127.115637-127.162182V127.162182A127.278545 127.278545 0 0 1 127.185455 0H3306.589091a127.278545 127.278545 0 0 1 127.138909 127.162182v766.091636a127.278545 127.278545 0 0 1-127.138909 127.162182z" fill="#000000" p-id="17022"></path><path d="M1206.109091 261.981091c0 21.480727-6.190545 38.306909-18.618182 50.571636-13.940364 15.313455-32.535273 22.993455-55.784727 22.993455a76.520727 76.520727 0 0 1-55.808-22.993455c-15.499636-15.313455-23.272727-33.698909-23.272727-56.692363 0-22.970182 7.749818-41.355636 23.272727-56.692364a76.590545 76.590545 0 0 1 55.808-22.970182c10.845091 0 21.690182 1.536 30.999273 6.120727 9.309091 4.608 18.594909 9.192727 23.249454 16.872728l-13.963636 13.777454c-10.845091-12.241455-24.785455-18.385455-41.844364-18.385454-15.499636 0-29.44 6.144-41.844364 16.849454-12.404364 10.728727-17.058909 26.065455-17.058909 44.450909 0 18.385455 6.190545 32.139636 17.058909 44.404364 12.404364 10.728727 26.344727 16.872727 41.844364 16.872727 17.058909 0 30.999273-6.144 41.867636-16.872727 7.726545-7.656727 12.404364-18.385455 12.404364-30.626909h-55.831273v-18.385455h75.962182c1.559273 3.048727 1.559273 6.120727 1.559273 10.705455z" fill="#FFFFFF" p-id="17023"></path><path d="M1130.123636 337.082182c-21.690182 0-41.821091-7.68-57.320727-22.993455-15.522909-15.313455-23.272727-35.234909-23.272727-58.228363 0-22.970182 7.749818-42.891636 23.272727-58.228364 15.499636-15.313455 34.094545-22.970182 57.344-22.970182 10.845091 0 21.713455 1.536 32.558546 6.144 9.285818 3.956364 17.687273 9.681455 24.785454 16.849455v1.512727l-15.476364 15.336727-1.559272-1.536c-9.309091-12.241455-23.272727-16.849455-40.308364-16.849454-15.499636 0-29.44 6.120727-40.308364 16.849454-10.845091 10.728727-17.035636 26.042182-17.035636 42.891637 0 18.408727 6.190545 32.162909 17.035636 42.914909a56.599273 56.599273 0 0 0 40.308364 16.849454c17.058909 0 30.999273-6.120727 41.867636-16.849454 6.167273-7.68 10.845091-16.872727 12.404364-29.114182h-55.831273v-21.457455h75.962182v1.536c1.559273 3.072 1.559273 7.656727 1.559273 12.241455 0 21.480727-6.190545 38.306909-18.618182 52.130909-13.940364 13.777455-34.094545 22.970182-57.344 22.970182z m0-160.884364a76.567273 76.567273 0 0 0-55.784727 22.970182c-15.499636 15.336727-23.272727 33.722182-23.272727 56.692364 0 21.457455 7.773091 41.378909 23.272727 56.692363a76.567273 76.567273 0 0 0 55.808 22.993455c23.272727 0 41.867636-7.68 55.831273-22.993455 12.381091-12.264727 18.571636-29.090909 18.571636-50.571636 0-3.048727 0-7.656727-1.536-10.705455h-71.307636v15.313455h55.784727v1.536c-1.536 13.777455-6.167273 24.506182-12.404364 32.162909-10.821818 12.264727-26.344727 16.872727-43.380363 16.872727a60.253091 60.253091 0 0 1-41.867637-16.872727c-12.404364-12.241455-18.618182-26.042182-18.618181-44.427636s6.213818-33.698909 18.618181-44.427637c12.404364-10.705455 26.344727-16.849455 41.867637-16.849454 17.035636 0 30.999273 6.144 41.844363 16.849454l10.868364-12.264727c-6.213818-6.120727-13.963636-12.241455-23.272727-15.313455-9.309091-4.584727-20.154182-7.68-30.999273-7.68z m192.232728 21.434182h-69.725091V246.690909h61.998545v18.385455h-62.021818v49.035636h69.771636v18.385455h-88.366545V179.269818h88.366545v18.385455z" fill="#FFFFFF" p-id="17024"></path><path d="M1323.915636 332.474182h-91.461818v-154.763637h91.461818v21.457455H1254.167273v45.986909h62.021818v21.434182H1254.167273v45.963636h69.748363v19.921455z m-88.366545-1.536h86.807273v-16.849455h-69.748364v-50.571636h61.998545v-15.313455h-61.998545V197.632h69.748364v-16.849455h-86.807273v150.155637z m170.519273 0h-20.154182V196.096h-41.867637v-18.385455h105.425455v18.385455h-43.403636v134.842182z" fill="#FFFFFF" p-id="17025"></path><path d="M1407.627636 332.474182h-21.713454V199.168h-41.890909v-21.457455h106.984727v21.457455H1409.163636v133.306182h-1.536z m-20.154181-1.536h17.058909V196.119273h41.844363v-16.872728h-102.306909v16.872728h41.844364v134.818909h1.559273z m136.424727 0V177.710545h20.130909v153.227637h-20.130909z" fill="#FFFFFF" p-id="17026"></path><path d="M1545.588364 332.474182h-21.690182v-154.763637h21.690182v154.763637z m-20.154182-1.536h17.058909V180.805818h-17.035636v150.132364h-0.023273zM1630.859636 330.938182h-20.154181V196.096h-43.403637v-18.385455h105.402182v18.408728H1629.323636l1.536 134.818909z" fill="#FFFFFF" p-id="17027"></path><path d="M1630.859636 332.474182h-20.154181V199.168h-43.403637v-21.457455h106.961455v21.457455h-43.403637v133.306182z m-18.618181-1.536h17.082181V196.119273h43.380364v-16.872728h-102.306909v16.872728h43.403636v134.818909h-1.536z m260.421818-18.385455a76.474182 76.474182 0 0 1-55.784728 22.993455 76.520727 76.520727 0 0 1-55.808-22.993455c-15.499636-15.313455-21.713455-33.698909-21.713454-56.692363 0-22.970182 7.773091-41.355636 21.713454-56.692364a76.567273 76.567273 0 0 1 55.808-22.970182c21.713455 0 40.308364 7.68 55.831273 22.970182 15.476364 15.336727 23.226182 33.722182 23.226182 56.692364-1.536 21.457455-9.309091 41.378909-23.272727 56.692363z m-97.629091-13.777454c10.845091 10.705455 24.785455 16.849455 41.844363 16.849454 17.058909 0 29.463273-6.120727 41.867637-16.849454 10.845091-10.728727 17.035636-26.065455 17.035636-44.450909 0-18.385455-6.190545-32.162909-17.035636-44.427637-10.868364-10.705455-24.808727-16.849455-41.890909-16.849454-17.035636 0-29.416727 6.120727-41.821091 16.849454-10.868364 10.728727-17.058909 26.065455-17.058909 44.450909 0 18.385455 4.654545 33.698909 17.058909 44.427637z" fill="#FFFFFF" p-id="17028"></path><path d="M1815.319273 337.082182c-23.249455 0-41.844364-7.68-57.367273-22.993455-15.476364-15.313455-23.226182-35.234909-23.226182-58.228363 0-22.970182 7.749818-41.355636 23.226182-58.228364 15.522909-15.313455 34.117818-22.970182 57.390545-22.970182 21.690182 0 41.844364 7.68 57.344 22.970182 15.499636 15.336727 23.272727 35.258182 23.272728 58.228364 0 22.993455-7.773091 41.378909-23.272728 58.228363-15.499636 13.800727-34.094545 22.993455-57.367272 22.993455z m0-160.884364a76.567273 76.567273 0 0 0-55.784728 22.970182c-13.963636 15.336727-21.713455 33.722182-21.713454 56.692364 0 21.457455 7.749818 41.378909 21.713454 56.692363 15.476364 15.313455 32.535273 22.993455 55.784728 22.993455 21.713455 0 40.308364-7.68 54.272-22.993455 13.963636-15.313455 21.690182-33.698909 21.690182-56.692363 0-21.434182-7.749818-39.842909-21.690182-55.156364-13.963636-16.849455-30.999273-24.506182-54.272-24.506182z m0 140.962909c-17.035636 0-30.999273-6.120727-41.844364-16.872727-10.868364-12.241455-17.058909-26.042182-17.058909-44.427636s6.190545-33.698909 17.058909-44.427637c10.845091-12.264727 26.344727-16.849455 41.844364-16.849454 17.058909 0 30.999273 6.144 41.867636 16.849454 10.845091 12.264727 17.035636 26.065455 17.035636 44.450909 0 18.385455-6.190545 33.698909-17.035636 44.404364-10.868364 10.752-24.808727 16.872727-41.867636 16.872727z m0-122.577454c-15.499636 0-29.44 6.144-40.308364 16.849454-10.845091 10.728727-17.058909 26.065455-17.058909 42.891637 0 16.872727 6.213818 32.186182 17.058909 42.914909a56.599273 56.599273 0 0 0 80.616727 0c10.845091-10.705455 17.058909-26.065455 17.058909-42.914909s-6.190545-32.162909-17.058909-42.891637c-9.309091-10.705455-23.249455-16.849455-40.308363-16.849454zM1922.280727 330.938182V177.710545h23.249455l74.426182 119.528728h1.536l-1.536-29.114182V179.269818h20.154181v153.204364h-20.154181l-77.521455-124.090182h-1.536l1.536 29.090909v95.022546l-20.154182-1.559273z" fill="#FFFFFF" p-id="17029"></path><path d="M1942.458182 332.474182h-21.713455v-154.763637h26.368l72.843637 116.456728V177.710545h21.690181v154.763637h-21.690181L1943.994182 209.92l1.536 26.042182v96.535273h-3.072z m-18.618182-1.536h17.058909v-93.463273l-1.536-30.626909h3.095273l77.498182 124.090182h18.618181V180.782545h-17.082181v88.878546l1.559272 30.626909h-3.095272l-74.426182-117.969455h-21.690182v148.619637z m-190.673455 223.697454c-60.462545 0-108.520727 45.963636-108.520727 108.8 0 62.813091 48.058182 108.776727 108.520727 108.776728 60.462545 0 108.497455-45.963636 108.497455-108.776728 0-62.836364-49.570909-108.8-108.497455-108.8z m0 174.661819c-32.558545 0-60.462545-27.578182-60.462545-65.861819 0-39.842909 27.927273-65.885091 60.462545-65.885091 32.558545 0 60.462545 26.042182 60.462546 65.861819 0 38.306909-27.927273 65.885091-60.485818 65.885091h0.023272z m-237.172363-174.661819c-60.485818 0-108.520727 45.963636-108.520727 108.8 0 62.813091 48.058182 108.776727 108.520727 108.776728 60.462545 0 108.497455-45.963636 108.497454-108.776728 0-62.836364-48.058182-108.8-108.497454-108.8z m0 174.661819c-32.581818 0-60.485818-27.578182-60.485818-65.861819 0-39.842909 27.927273-65.885091 60.485818-65.885091 32.535273 0 60.462545 26.042182 60.462545 65.861819 0 38.306909-27.927273 65.885091-60.462545 65.885091zM1213.835636 588.334545v45.963637h110.056728c-3.095273 26.065455-12.404364 44.450909-24.785455 58.228363-15.522909 15.313455-40.331636 33.722182-85.271273 33.722182-68.189091 0-120.901818-55.156364-120.901818-122.577454 0-67.421091 52.689455-122.577455 120.901818-122.577455 37.213091 0 63.534545 13.800727 82.152728 32.162909l32.558545-32.162909c-27.904-26.042182-63.557818-45.963636-114.734545-45.963636-92.997818 0-170.496 75.077818-170.496 168.541091s77.498182 168.541091 170.519272 168.541091c49.594182 0 88.366545-16.872727 117.829819-47.499637 30.976-30.650182 40.285091-73.541818 40.28509-107.264 0-10.705455-1.536-19.921455-3.095272-29.090909h-155.019637z m1151.767273 35.258182c-9.285818-24.506182-37.189818-68.957091-92.997818-68.957091-55.808 0-102.306909 44.450909-102.306909 108.8 0 61.277091 46.498909 108.776727 106.961454 108.776728a107.124364 107.124364 0 0 0 89.902546-47.499637l-37.189818-24.529454c-12.404364 18.385455-29.463273 30.650182-52.712728 30.650182-24.785455 0-41.844364-10.728727-52.712727-32.16291l144.174546-59.764363-3.095273-15.313455z m-147.246545 36.770909c-1.559273-41.378909 32.535273-62.836364 55.808-62.836363 18.618182 0 35.653818 9.192727 40.308363 22.993454l-96.116363 39.819637z m-117.829819 105.704728h48.081455v-320.232728h-48.081455v320.232728z m-77.498181-186.903273h-1.536c-10.868364-12.264727-31.022545-24.529455-57.367273-24.529455-54.248727 0-103.866182 47.499636-103.866182 108.8 0 61.277091 49.617455 108.776727 103.866182 108.776728 26.344727 0 46.498909-12.264727 57.367273-24.529455h1.536v15.313455c0 41.378909-21.690182 64.349091-57.367273 64.349091-29.44 0-46.498909-21.434182-54.225455-38.283637l-41.867636 16.849455c12.381091 29.090909 43.403636 64.349091 96.116364 64.349091 55.808 0 102.306909-32.186182 102.306909-113.384728v-194.56h-44.962909v16.849455z m-54.248728 150.132364c-32.558545 0-60.462545-27.578182-60.462545-65.861819 0-38.306909 27.927273-65.885091 60.462545-65.885091 32.558545 0 57.367273 27.578182 57.367273 65.861819 0 38.306909-24.808727 65.885091-57.390545 65.885091z m620.078546-283.461819h-113.175273v320.232728h48.058182v-121.018182h66.653091c52.712727 0 103.866182-38.306909 103.866182-99.607273-1.536-61.277091-52.689455-99.607273-105.425455-99.607273z m1.536 154.763637h-68.189091v-110.312728h68.189091c35.653818 0 55.808 29.114182 55.808 55.156364 0 24.506182-20.154182 55.156364-55.808 55.156364z m293.003636-45.963637c-34.117818 0-69.771636 15.313455-85.271273 49.012364l41.844364 18.408727c9.309091-18.385455 26.344727-22.970182 43.403636-22.970182 24.808727 0 49.617455 15.290182 49.617455 41.355637v3.072a109.149091 109.149091 0 0 0-49.617455-12.264727c-44.939636 0-91.461818 24.506182-91.461818 72.005818 0 42.914909 37.236364 70.469818 79.057455 70.469818 32.581818 0 49.617455-13.777455 60.485818-30.650182h1.536v24.529455h46.498909v-122.577455c0-58.205091-41.867636-90.391273-96.116364-90.391273z m-6.190545 174.661819c-15.522909 0-37.236364-7.68-37.236364-27.578182 0-24.506182 26.344727-33.722182 49.617455-33.722182 20.154182 0 30.999273 4.608 43.403636 10.728727a56.622545 56.622545 0 0 1-55.808 50.571637z m269.707636-168.517819l-54.272 137.867637h-1.536l-55.808-137.867637h-51.153454l85.271272 193.047273-48.081454 107.240727h49.617454l130.210909-300.288h-54.248727z m-427.845818 205.265455h48.058182V445.882182h-48.058182v320.209454z" fill="#FFFFFF" p-id="17030"></path><path d="M266.007273 827.368727c-7.749818-9.285818-10.845091-20.107636-12.381091-30.929454V227.328c0-12.357818 3.095273-24.738909 12.357818-34.024727 1.559273 0 3.095273 1.559273 4.654545 3.095272l236.613819 236.613819 72.680727 72.680727 4.654545 4.654545c0 3.095273-3.118545 4.631273-4.654545 6.167273l-146.920727 146.920727c-32.465455 32.488727-66.490182 64.954182-98.978909 98.978909-20.107636 21.643636-41.751273 41.751273-61.85891 63.418182-3.095273 0-4.654545 1.536-6.190545 1.536z" fill="#01D4FE" p-id="17031"></path><path d="M266.007273 827.368727l86.574545-86.597818 227.351273-227.328 3.095273-3.095273h1.536c1.559273 0 3.095273 1.536 4.654545 3.095273l98.955636 98.955636c1.559273 1.559273 4.654545 3.095273 3.095273 6.190546-26.298182 15.476364-51.037091 29.393455-77.312 44.846545-72.680727 41.751273-145.361455 83.525818-218.065454 123.717819-24.738909 13.917091-51.037091 29.393455-75.776 43.287272-9.262545 6.213818-20.107636 9.309091-30.929455 7.749818-10.821818-1.536-16.989091-4.654545-23.202909-10.821818z" fill="#FE3A44" p-id="17032"></path><path d="M583.028364 510.347636c-68.049455-68.049455-136.098909-134.562909-202.589091-202.589091l-111.36-111.36c-1.536-1.536-3.095273-1.536-3.095273-3.095272 9.309091-10.821818 21.643636-12.357818 35.584-9.262546 10.821818 3.095273 21.643636 9.262545 30.929455 13.917091l129.908363 74.24c41.751273 23.179636 83.502545 47.941818 125.253818 71.121455 34.024727 20.107636 68.049455 38.656 102.074182 58.763636 1.536 1.559273-1.559273 3.095273-1.559273 4.654546l-100.514909 100.514909c-1.536 1.536-3.095273 3.095273-4.654545 3.095272z" fill="#03EE76" p-id="17033"></path><path d="M583.028364 510.347636c1.536-1.559273 3.095273-3.095273 3.095272-4.654545l100.514909-100.514909c1.536-1.536 3.095273-1.536 3.095273-3.095273 41.751273 24.738909 85.061818 47.941818 126.813091 72.680727 10.821818 6.190545 20.107636 15.476364 23.202909 27.834182 3.072 10.845091-1.559273 21.643636-7.749818 29.393455-4.654545 6.190545-10.821818 10.821818-16.989091 13.917091-41.774545 23.202909-81.989818 46.405818-123.741091 69.585454 0 0-1.536 0-1.536 1.559273 0-1.559273-1.559273-3.095273-3.095273-4.654546-32.488727-34.024727-66.490182-66.490182-100.538181-100.514909-1.536 0-1.536-1.536-3.072-1.536z" fill="#FED504" p-id="17034"></path></svg>