<?xml version="1.0" encoding="UTF-8"?>
<svg width="220px" height="61px" viewBox="0 0 220 61" version="1.1" xmlns="http://www.w3.org/2000/svg" xmlns:xlink="http://www.w3.org/1999/xlink">
    <title>编组</title>
    <defs>
        <polygon id="path-1" points="5.57881937e-05 0.162856468 219.442275 0.162856468 219.442275 59.0141706 5.57881937e-05 59.0141706"></polygon>
    </defs>
    <g id="页面-1" stroke="none" stroke-width="1" fill="none" fill-rule="evenodd">
        <g id="DZQ官网一期-首页" transform="translate(-335.000000, -3180.000000)">
            <g id="编组-14" transform="translate(0.000000, 2968.000000)">
                <g id="编组" transform="translate(335.000000, 212.000000)">
                    <path d="M160.80249,26.3597664 L169.909451,26.3597664 L169.909451,13.7032086 L160.80249,13.7032086 L160.80249,26.3597664 Z M173.7176,10.2313016 L149.79004,10.2313016 L149.79004,13.7032086 L156.993775,13.7032086 L156.993775,26.3597664 L148.738257,26.3597664 L148.738257,29.8313896 L156.993775,29.8313896 L156.993775,51.0569215 L160.80249,51.0569215 L160.80249,29.8313896 L169.909168,29.8313896 L169.909168,50.6117615 L177.101019,50.6117615 L177.101019,47.1384359 L173.7176,47.1384359 L173.7176,10.2313016 Z" id="Fill-1" fill="#000000"></path>
                    <polygon id="Fill-2" fill="#000000" points="107.343803 44.8204266 126.221845 44.8204266 126.221845 41.3488034 107.343803 41.3488034"></polygon>
                    <g transform="translate(0.000000, 0.120866)">
                        <mask id="mask-2" fill="white">
                            <use xlink:href="#path-1"></use>
                        </mask>
                        <g id="Clip-4"></g>
                        <path d="M97.9436899,21.9121392 L102.792303,21.9121392 L102.792303,13.6694456 L97.9436899,13.6694456 L97.9436899,21.9121392 Z M97.9436899,33.3450038 L102.792303,33.3450038 L102.792303,25.0364867 L97.9436899,25.0364867 L97.9436899,33.3450038 Z M94.4810413,34.8033352 C94.4810413,41.1161513 93.9719864,45.9076496 92.9244482,50.1538341 C92.8140917,50.5470729 92.9326542,50.6523338 93.1383701,50.6523338 L96.6095076,50.6523338 C97.7691002,44.8195755 97.9204867,39.9806956 97.9402943,36.4696349 L102.792303,36.4696349 L102.792303,47.2629899 L99.3466327,47.2629899 C99.1791171,47.2629899 99.049236,47.3722229 99.1378042,47.6125355 L100.086587,50.7343295 L106.248161,50.7343295 L106.248161,10.1978224 L94.4810413,10.1978224 L94.4810413,34.8033352 Z" id="Fill-3" fill="#000000" mask="url(#mask-2)"></path>
                        <path d="M123.319468,24.2703236 C124.14884,25.6384314 125.042162,26.8320502 125.964063,27.8804032 L114.630164,27.8804032 C115.510187,26.8624084 116.361913,25.6747478 117.155631,24.2703236 L123.319468,24.2703236 Z M127.558008,24.2703236 L132.206565,24.2703236 L132.206565,21.1456924 L118.662139,21.1456924 C119.070741,20.1472745 119.438596,19.0770748 119.773628,17.9169353 L131.357102,17.9169353 L131.357102,14.7925878 L127.96378,14.7925878 C128.52858,12.8621429 129.195529,10.5838546 129.234012,10.4519239 C129.301924,10.2209741 129.180532,10.1316016 129.031409,10.1316016 L126.083758,10.1316016 L124.717035,14.7925878 L120.550934,14.7925878 C120.939162,12.9861294 121.278155,10.9853214 121.585739,8.74051233 C121.621675,8.4803392 121.482173,8.42870178 121.309847,8.42870178 L117.954443,8.42870178 C117.611488,10.8145207 117.252688,12.8703708 116.793435,14.7925878 L114.749293,14.7925878 L113.383135,10.1316016 L110.435484,10.1316016 C110.286078,10.1316016 110.164969,10.2209741 110.232598,10.4519239 C110.271364,10.5838546 110.937748,12.8621429 111.50283,14.7925878 L108.198359,14.7925878 L108.198359,17.9169353 L115.915676,17.9169353 C115.601868,18.9042881 115.140917,20.0658462 114.647708,21.1456924 L107.349462,21.1456924 L107.349462,24.2703236 L112.831353,24.2703236 C110.620826,27.4165176 108.25863,28.8640676 107.316072,29.4425769 L107.316072,33.0169076 C107.316072,33.1967874 107.458121,33.388016 108.021505,33.0674101 C109.046406,32.484645 110.140068,31.8255586 111.247878,31.0047506 L124.143181,31.0047506 L124.034239,35.683895 L113.853424,35.683895 L114.008206,32.8861117 C114.008206,32.7652461 113.920487,32.6750225 113.796831,32.6750225 L110.54103,32.6750225 L110.213356,38.5971532 C110.213073,38.7177351 110.300509,38.8082425 110.424448,38.8082425 L127.98953,38.8082425 L127.98953,47.2563508 L120.072722,47.2563508 C119.905207,47.2563508 119.775325,47.3658676 119.863894,47.6061801 L120.81296,50.7279741 L131.797963,50.7279741 L131.797963,35.683895 L127.498019,35.683895 L127.639502,29.6082706 C129.247312,31.1077418 130.878891,32.2230532 132.362762,33.0674101 C132.926146,33.388016 133.067912,33.1970711 133.067912,33.0169076 L133.067912,29.4425769 C132.126203,28.8643513 129.767119,27.4128292 127.558008,24.2703236 L127.558008,24.2703236 Z" id="Fill-5" fill="#000000" mask="url(#mask-2)"></path>
                        <path d="M152.204612,38.8141155 C152.140379,38.8629157 148.909762,41.3171116 145.782994,43.6930002 L145.782994,21.1248956 L136.884861,21.1248956 L136.884861,24.9437947 L142.000028,24.9437947 L142.000028,46.5668211 C140.781296,47.4928899 139.955037,48.1207669 139.955037,48.1207669 L142.044737,50.8890431 L152.548132,42.9093599 L152.548132,38.9772557 C152.548132,38.789148 152.340719,38.710557 152.204612,38.8141155" id="Fill-6" fill="#000000" mask="url(#mask-2)"></path>
                        <path d="M142.502264,17.7063284 L146.66412,17.7063284 C146.848613,17.7063284 146.924165,17.5054531 146.842671,17.3811829 C146.766836,17.2651405 141.59253,9.34191801 141.59253,9.34191801 L137.43039,9.34191801 C137.272496,9.34191801 137.158744,9.52406758 137.245614,9.6568495 C137.332201,9.78991516 142.502264,17.7063284 142.502264,17.7063284" id="Fill-7" fill="#000000" mask="url(#mask-2)"></path>
                        <polygon id="Fill-8" fill="#000000" mask="url(#mask-2)" points="185.152801 14.8556876 215.209111 14.8556876 215.209111 11.0370723 185.152801 11.0370723"></polygon>
                        <path d="M196.054329,29.2875512 L219.442275,29.2875512 L219.442275,25.4686521 L180.919638,25.4686521 L180.919638,29.2875512 L191.607244,29.2875512 C189.399547,35.0990304 183.859932,49.6837634 183.822015,49.7895917 C183.761743,49.9584063 183.8721,50.0840952 184.018393,50.0840952 L217.245331,50.0840952 C217.401811,50.0840952 217.49236,49.9286155 217.436333,49.7810801 C217.401245,49.6891541 212.482173,36.7213531 212.482173,36.7213531 L208.346067,36.7213531 C208.189021,36.7213531 208.095359,36.8737119 208.147425,37.0116008 C208.199774,37.1494898 211.653367,46.2654799 211.653367,46.2654799 L189.622241,46.2654799 L196.054329,29.2875512 Z" id="Fill-9" fill="#000000" mask="url(#mask-2)"></path>
                        <path d="M75.7334748,26.9264729 C72.338172,23.4551333 67.6058574,21.2673523 62.3449632,21.2673523 C57.797142,21.266785 53.8820317,22.8391727 50.4638087,25.6301467 C48.9734295,26.846747 47.4103282,28.3033761 45.4440011,30.2185 C44.4672043,31.1695364 16.150283,58.7195169 16.150283,58.7195169 C17.6347199,58.9314573 19.6763158,58.9947273 21.4966327,59.0063599 C23.2020656,59.0168576 55.7371534,59.0137367 57.0990662,59.0137367 C59.8401528,59.0137367 61.6242501,59.0106157 63.5404924,58.8701733 C67.9352292,58.5487162 72.0868987,56.9326353 75.4428693,53.6284081 C82.8953311,46.2902204 83.0073854,34.3804191 75.7334748,26.9264729 M70.2906338,48.3480566 C68.846378,49.7811368 66.2702603,51.4088503 62.0413413,51.5526974 C60.0857668,51.6196558 57.8022354,51.6267489 56.7572439,51.6267489 L34.0345501,51.6267489 C42.3019525,43.5755677 49.5136106,36.5523115 50.3316638,35.7561874 C51.0812394,35.0258868 52.7668647,33.4089547 54.2207414,32.0964564 C57.412309,29.2146914 60.2861064,28.6347634 62.3177985,28.6537728 C65.5020091,28.6838474 68.3978778,29.987834 70.4677702,32.0924843 C74.895614,36.6303351 74.7909168,43.882555 70.2906338,48.3480566" id="Fill-10" fill="#00A3FF" mask="url(#mask-2)"></path>
                        <path d="M30.0465761,25.1550257 C26.7180532,22.6571366 22.9913978,21.261224 18.7667233,21.2671632 C13.5058291,21.2671632 8.77323147,23.4549631 5.37792869,26.9265863 C-1.89569892,34.3805326 -1.7836446,46.2900502 5.6688172,53.6279541 C8.66089417,56.5744078 12.2856819,58.1774375 16.1512733,58.7184955 L23.4421619,51.6248763 C22.2633277,51.620053 20.5714771,51.6038809 19.0700623,51.5528109 C14.8414261,51.4086801 12.2653084,49.781534 10.8207697,48.3481701 C6.3204867,43.8826684 6.21578947,36.6301649 10.6439162,32.0920304 C12.7138087,29.9876638 15.6096774,28.6839609 18.793605,28.65417 C20.7887946,28.6459421 23.4967742,29.2267212 26.5564799,31.7700058 C28.0171477,32.9840525 31.2602151,35.8425524 32.6829655,37.1289483 C32.7554046,37.1944881 32.842558,37.2001625 32.9274477,37.1306506 L37.9475382,32.2191378 C38.0344086,32.1348724 38.0293152,32.0205324 37.9435767,31.9430763 C35.5293152,29.7547279 32.1065648,26.6930831 30.0465761,25.1550257" id="Fill-11" fill="#00C8DC" mask="url(#mask-2)"></path>
                        <path d="M64.3188172,17.0041162 C60.8547538,7.19329077 51.5267968,0.162657863 40.5556593,0.162657863 C27.9707697,0.162657863 17.541794,9.44178818 15.6529994,21.5286321 C16.6651669,21.3578314 17.7047821,21.2670403 18.7667516,21.2670403 C20.2441143,21.2650543 21.6592247,21.4381248 23.0191568,21.7661075 C23.0457555,21.7717819 23.0723543,21.7749029 23.0986701,21.7814285 C24.80382,13.6204468 31.9990662,7.55872479 40.5556593,7.55872479 C47.6818619,7.55872479 53.9337012,11.868463 56.7523203,17.9755806 C56.7967459,18.0717624 56.8717317,18.1035393 56.9486984,18.0822601 C59.0683928,17.4983601 61.6099887,17.1587448 64.0647142,17.3403269 C64.30382,17.3579177 64.3957838,17.222866 64.3188172,17.0041162" id="Fill-12" fill="#006EFF" mask="url(#mask-2)"></path>
                    </g>
                </g>
            </g>
        </g>
    </g>
</svg>